<svg xmlns="http://www.w3.org/2000/svg" xml:space="preserve" width="220.02" height="92.62" viewBox="0 0 397.333 185.333"><path d="M2747.4 647.523v81.079h-55.89v84.058c0 54.293-49.39 54.293-54.64 54.293h-39.55V728.602h-48.29v-81.079h48.29V353.23h94.19v294.293Zm-194.97-115.921c0 62.105-18.52 112.07-55.55 149.91-37.03 37.824-85.11 56.754-144.22 56.754-55.66 0-101.94-18.93-138.87-56.754-36.91-37.84-55.36-85.395-55.36-142.668 0-55.899 18.5-102.422 55.53-139.559 37.03-37.144 85-55.726 143.88-55.726 37.95 0 70.72 6.73 98.33 20.191 27.6 13.449 51.28 34.215 71.08 62.281l-79.36 37.254c-25.3-24.613-55.55-36.91-90.74-36.91-29.45 0-53.65 7.879-72.63 23.633-18.98 15.738-30.65 36.965-35.02 63.652h302.58zm-94.53 56.238h-204.26c10.61 23.223 22.13 39.441 34.57 48.644 19.81 14.719 42.84 22.082 69.11 22.082 24.2 0 45.45-6.554 63.76-19.66 18.32-13.121 30.6-30.148 36.82-51.066m-423.73-234.61h93.16v248.063c0 43.238-10.91 75.902-32.73 97.984-25.96 25.989-57.54 38.989-94.74 38.989-18.15 0-35.89-3.52-53.24-10.563-17.34-7.047-36.68-19.57-58.04-37.574v38.473h-94.2V353.23h94.2v150.594c0 39.055 1.36 64.438 4.13 76.153 5.27 22.519 14.74 40.156 28.4 52.906 13.65 12.75 30 19.129 49.04 19.129 14.68 0 27.02-3.852 37-11.543 9.99-7.707 16.98-18.906 21-33.602 4.01-14.711 6.02-44.461 6.02-89.262zm-330.91-91.75c25.54 29.911 38.3 76.59 38.3 140.071v327.051h-93.84v-41.399c-19.33 18.164-38.59 31.219-57.79 39.16-19.21 7.934-39.63 11.903-61.25 11.903-46.23 0-86.03-16.336-119.38-48.996-36.8-36.106-55.19-83.954-55.19-143.532 0-55.656 17.36-101.664 52.1-138.004 34.72-36.343 77.27-54.504 127.65-54.504 23 0 43.58 3.622 61.76 10.872 18.17 7.238 35.54 19.136 52.1 35.703 0-30.364.91-49.414-9.49-69.664-6.33-12.422-17.2-22.551-32.61-30.36-15.41-7.82-35.76-11.73-61.06-11.73-19.8 0-36.93 2.699-51.41 8.097-14.5 5.403-26.35 13.403-35.54 23.981h-103.84c8.27-25.527 21.03-47.207 38.28-65.027 17.25-17.821 38.42-31.34 63.49-40.543 25.07-9.2 56.01-13.809 92.8-13.809 69.01 0 120.64 20.238 154.92 60.73m-50.72 283.227c0-31.734-9.48-57.391-28.45-76.934-18.99-19.554-43.08-29.324-72.29-29.324-29.91 0-54.75 9.996-74.53 30.012-19.78 20.008-29.66 45.648-29.66 76.934 0 30.132 9.66 55.144 28.98 75.043 19.31 19.898 43.82 29.839 73.49 29.839 30.12 0 54.73-9.769 73.83-29.324 19.08-19.543 28.63-44.961 28.63-76.246m-516.62-334.238 237.28 518.133h-96.53l-107.59-235.528-97.51 235.528h-96.254l142.694-347.364-79.37-170.769ZM966.105 737.633l39.765 91.48c-20.077 16.95-42.03 31.313-66.323 42.407-38.766 17.675-79.067 26.519-120.93 26.519-49.222 0-95.164-11.953-137.836-35.879-42.668-23.922-75.437-55.551-98.328-94.887-22.89-39.32-34.328-84.293-34.328-134.894 0-78.207 25.129-142.324 75.387-192.344C673.766 390.008 738.348 365 817.242 365c42.774 0 80.836 7.07 114.203 21.219 23.551 9.996 48.176 25.711 73.795 46.91l-38.685 92.25c-25.59-24.613-49.278-42.113-70.871-51.859-23.207-10.485-48.84-15.715-76.868-15.715-32.859 0-62.742 7.48-89.628 22.441-26.891 14.973-47.688 35.574-62.399 61.813-14.711 26.254-22.055 56.308-22.055 90.148 0 48.586 16.602 89.445 49.805 122.609 33.219 33.153 74.059 49.727 122.543 49.727 54.957 0 104.59-22.48 149.023-66.91" style="fill:#2e6bac;fill-opacity:1;fill-rule:nonzero;stroke:none" transform="matrix(.13333 0 0 -.13333 0 185.333)"></path><path d="M1016.38 1162.81c-81.13 35.43-162.595 46.32-252.728 37.85-325.05-30.58-564.828-307.43-535.582-618.344 14.125-150.043 88.477-280.394 198.02-371.836h.398c-27.117 31.442-51.211 66.622-71.004 105.661-72.91 143.882-73.332 303.828-14.589 432.699-26.743-110.852-14.575-235.129 43.281-349.293 39.836-78.598 107.211-142.559 196.551-189.067h366.886l48.364 111.192c-54.93-33.473-119.297-52.981-188.344-52.981-200.375 0-362.824 162.446-362.824 362.825 0 200.375 162.449 362.824 362.824 362.824 83.355 0 160.117-28.149 221.377-75.399-12.42 24.332 9.08 43.36 38.05 52.043 48.84 14.629 32.56 59.936-24.43 46.616-19.74-4.61-43.646 16.55-32.55 37.74 11.11 21.2 36.75 23 50.32 3.7 26.49-37.67 84.16-76.114 88.01-50.52.08 3.68.14 6.3.14 7.61 0 8.87 3.76 87.32-132.17 146.68m55.91-283.165c21.39-22.809 40.1-48.625 55.07-76.391h14.2s2.76 83.078 4.15 117.937c1.38 34.872-11.2 39.598-22.21 36.661-8.45-2.25-34.08-8.832-52.38-19.793-27.53-16.524-9.99-44.7 1.17-58.414" style="fill:#bbc1b5;fill-opacity:1;fill-rule:nonzero;stroke:none" transform="matrix(.13333 0 0 -.13333 0 185.333)"></path></svg>